<?xml version="1.0" standalone="no"?><!DOCTYPE svg PUBLIC "-//W3C//DTD SVG 1.1//EN" "http://www.w3.org/Graphics/SVG/1.1/DTD/svg11.dtd"><svg t="1565847947261" class="icon" viewBox="0 0 1024 1024" version="1.1" xmlns="http://www.w3.org/2000/svg" p-id="16758" xmlns:xlink="http://www.w3.org/1999/xlink" width="128" height="128"><defs><style type="text/css"></style></defs><path d="M832 1024H192a192 192 0 0 1-192-192v-192l256-256h64v128h-10.944L128 704h192v64a64 64 0 0 0 64 64h256c35.392 0 64-28.608 64-64v-64h192l-180.992-192H704v-128h64l256 256v192a192 192 0 0 1-192 192z m-192-768h-64v192a64 64 0 1 1-128 0v-192h-64a64.042667 64.042667 0 0 1-59.136-39.488 64.213333 64.213333 0 0 1 13.888-69.76l128-128C479.232 6.272 495.616 0 512 0s32.768 6.272 45.248 18.752l128 128a64.106667 64.106667 0 0 1 13.888 69.76A64.042667 64.042667 0 0 1 640 256z" fill="" p-id="16759"></path></svg>