<?xml version="1.0" standalone="no"?><!DOCTYPE svg PUBLIC "-//W3C//DTD SVG 1.1//EN" "http://www.w3.org/Graphics/SVG/1.1/DTD/svg11.dtd"><svg t="1570692341787" class="icon" viewBox="0 0 1024 1024" version="1.1" xmlns="http://www.w3.org/2000/svg" p-id="7650" xmlns:xlink="http://www.w3.org/1999/xlink" width="128" height="128"><defs><style type="text/css"></style></defs><path d="M258.5 352h192.1c17.7 0 32-14.3 32-32s-14.3-32-32-32H258.5c-17.7 0-32 14.3-32 32s14.4 32 32 32z" p-id="7651"></path><path d="M739.7 896H195.5c-17.7 0-32-14.3-32-32V160c0-17.7 14.3-32 32-32h384.1v160c0 35.3 28.7 64 64 64h160v160c0 17.7 14.3 32 32 32s32-14.3 32-32V270.2c0-8.5-3.3-16.6-9.3-22.6L685.1 73.4c-6-6-14.2-9.4-22.7-9.4H163.5c-35.4 0-64 28.7-64 64v768c0 35.3 28.7 64 64 64h576.2c17.7 0 32-14.3 32-32s-14.3-32-32-32z m-96-768l160 160h-128c-17.7 0-32-14.3-32-32V128z" p-id="7652"></path><path d="M258.5 672c-17.7 0-32 14.3-32 32s14.3 32 32 32h321.1c17.7 0 32-14.3 32-32s-14.3-32-32-32H258.5zM674.7 512c0-17.7-14.3-32-32-32H258.5c-17.7 0-32 14.3-32 32s14.3 32 32 32h384.1c17.7 0 32.1-14.3 32.1-32zM868 865c-18.3 0-33.7-13.6-36-31.8l-20.1-160.7C807.6 638.8 834 609 868 609s60.3 29.8 56.1 63.5L904 833.2c-2.3 18.2-17.7 31.8-36 31.8z" p-id="7653"></path><path d="M836 927a32 32 0 1 0 64 0 32 32 0 1 0-64 0Z" p-id="7654"></path></svg>