<?xml version="1.0" standalone="no"?><!DOCTYPE svg PUBLIC "-//W3C//DTD SVG 1.1//EN" "http://www.w3.org/Graphics/SVG/1.1/DTD/svg11.dtd"><svg t="1570692219907" class="icon" viewBox="0 0 1024 1024" version="1.1" xmlns="http://www.w3.org/2000/svg" p-id="5605" xmlns:xlink="http://www.w3.org/1999/xlink" width="128" height="128"><defs><style type="text/css"></style></defs><path d="M556.1344 126.208l422.5024 718.2336A51.2 51.2 0 0 1 934.5024 921.6H89.4976a51.2 51.2 0 0 1-44.1344-77.1584L467.8656 126.208a51.2 51.2 0 0 1 88.2688 0zM512 307.2a51.2 51.2 0 0 0-51.2 51.2v256a51.2 51.2 0 0 0 102.4 0V358.4a51.2 51.2 0 0 0-51.2-51.2z m0 512a51.2 51.2 0 1 0 0-102.4 51.2 51.2 0 0 0 0 102.4z" p-id="5606"></path></svg>