<?xml version="1.0" standalone="no"?><!DOCTYPE svg PUBLIC "-//W3C//DTD SVG 1.1//EN" "http://www.w3.org/Graphics/SVG/1.1/DTD/svg11.dtd"><svg t="1574913566997" class="icon" viewBox="0 0 1092 1024" version="1.1" xmlns="http://www.w3.org/2000/svg" p-id="7151" xmlns:xlink="http://www.w3.org/1999/xlink" width="213.28125" height="200"><defs><style type="text/css"></style></defs><path d="M1037.653333 341.333333H109.226667v562.653867c0 3.413333 2.730667 6.212267 6.007466 6.212267H600.746667c30.173867 0 54.613333 25.463467 54.613333 56.9344 0 31.402667-24.439467 56.866133-54.613333 56.866133H115.234133C51.6096 1024 0 970.274133 0 903.9872V120.0128C0 53.794133 51.6096 0 115.234133 0h861.7984C1040.657067 0 1092.266667 53.725867 1092.266667 120.0128v164.4544c0 31.402667-24.439467 56.866133-54.613334 56.866133z m-54.613333-113.800533V120.0128a6.144 6.144 0 0 0-6.007467-6.212267H115.234133a5.870933 5.870933 0 0 0-4.232533 1.8432 6.417067 6.417067 0 0 0-1.774933 4.369067v107.52h873.813333zM1037.653333 887.466667c-30.173867 0-54.613333-25.463467-54.613333-56.866134v-273.066666c0-31.402667 24.439467-56.9344 54.613333-56.9344 30.173867 0 54.613333 25.463467 54.613334 56.9344v273.066666c0 31.402667-24.439467 56.866133-54.613334 56.866134zM819.2 887.466667c-30.173867 0-54.613333-25.463467-54.613333-56.866134v-273.066666c0-31.402667 24.439467-56.9344 54.613333-56.9344 30.173867 0 54.613333 25.463467 54.613333 56.9344v273.066666c0 31.402667-24.439467 56.866133-54.613333 56.866134z" p-id="7152"></path></svg>