<?xml version="1.0" standalone="no"?><!DOCTYPE svg PUBLIC "-//W3C//DTD SVG 1.1//EN" "http://www.w3.org/Graphics/SVG/1.1/DTD/svg11.dtd"><svg t="1574913552236" class="icon" viewBox="0 0 1024 1024" version="1.1" xmlns="http://www.w3.org/2000/svg" p-id="6296" xmlns:xlink="http://www.w3.org/1999/xlink" width="200" height="200"><defs><style type="text/css"></style></defs><path d="M183.702 828.918V127.526c0-26.734 21.676-48.59 48.59-48.59H769.13c26.733 0 48.59 21.676 48.59 48.59v410.033h65.388V127.526c0-62.86-51.118-113.979-113.978-113.979H232.11c-62.86 0-113.978 51.12-113.978 113.979v701.573c0 62.86 51.119 113.978 113.978 113.978h231.39v-65.389H232.11c-26.733-0.18-48.409-22.037-48.409-48.77z" p-id="6297"></path><path d="M732.1 568.628c-121.566 0-220.552 98.986-220.552 220.551S610.534 1009.73 732.1 1009.73s220.552-98.986 220.552-220.551-98.987-220.551-220.552-220.551z m0 375.714c-85.62 0-155.163-69.544-155.163-155.163 0-85.62 69.543-155.162 155.162-155.162s155.163 69.543 155.163 155.162c-0.18 85.62-69.724 155.163-155.163 155.163zM675.38 217.119H325.68c-18.064 0-32.695 14.631-32.695 32.694 0 18.064 14.631 32.695 32.695 32.695H675.38c18.063 0 32.694-14.631 32.694-32.695 0-18.063-14.63-32.694-32.694-32.694z m32.694 261.013c0-18.064-14.63-32.695-32.694-32.695H325.68c-18.064 0-32.695 14.631-32.695 32.695 0 18.063 14.631 32.694 32.695 32.694H675.38c18.063 0.18 32.694-14.631 32.694-32.694zM325.68 673.936c-18.064 0-32.695 14.631-32.695 32.694s14.631 32.695 32.695 32.695h95.192c18.064 0 32.695-14.631 32.695-32.695s-14.631-32.694-32.695-32.694H325.68z" p-id="6298"></path><path d="M800.198 775.27h-57.26v-35.945c0-18.063-14.632-32.695-32.695-32.695-18.063 0-32.694 14.632-32.694 32.695v68.64c0 18.063 14.63 32.694 32.694 32.694h89.955c18.063 0 32.694-14.631 32.694-32.694 0-18.063-14.631-32.695-32.694-32.695z" p-id="6299"></path></svg>