<?xml version="1.0" standalone="no"?><!DOCTYPE svg PUBLIC "-//W3C//DTD SVG 1.1//EN" "http://www.w3.org/Graphics/SVG/1.1/DTD/svg11.dtd"><svg t="1574913673420" class="icon" viewBox="0 0 1024 1024" version="1.1" xmlns="http://www.w3.org/2000/svg" p-id="8932" xmlns:xlink="http://www.w3.org/1999/xlink" width="200" height="200"><defs><style type="text/css"></style></defs><path d="M926.4128 687.9232c12.288 24.4736 16.2816 52.9408 16.2816 81.5104 0 28.4672-4.096 57.0368-16.384 81.5104-12.1856 28.4672-24.3712 48.8448-44.7488 69.2224-20.3776 20.48-44.8512 32.5632-69.2224 44.8512-24.576 12.288-53.0432 16.2816-81.5104 16.2816-28.5696 0-57.0368-4.096-81.5104-16.384a203.5712 203.5712 0 0 1-69.3248-44.7488 403.6608 403.6608 0 0 1-44.7488-69.2224c-12.288-24.576-16.384-53.0432-16.384-81.5104 0-28.5696 4.096-57.0368 16.384-81.5104 12.288-28.5696 24.3712-48.9472 44.7488-69.3248 20.48-20.2752 44.8512-32.5632 69.3248-44.7488 24.4736-12.288 52.9408-16.384 81.5104-16.384 28.4672 0 57.0368 4.096 81.5104 16.384 28.4672 12.288 48.8448 24.4736 69.2224 44.7488 20.48 20.48 32.5632 44.8512 44.8512 69.3248z m-195.584 199.68c12.288 0 20.3776-4.096 20.3776-16.384 0-8.0896-8.192-16.2816-20.48-16.2816-12.1856 0-20.2752 8.192-20.2752 16.384s8.192 16.2816 20.3776 16.2816z m20.3776-77.4144V655.36c0-8.192-4.096-12.288-12.288-12.288h-16.2816c-8.192 0-12.288 4.096-12.288 12.288v154.8288c0 8.192 4.096 12.288 12.288 12.288h16.384c8.0896 0 12.1856-4.096 12.1856-12.288zM649.216 15.5648c73.3184 0 134.4512 57.0368 130.3552 134.4512v362.7008a358.8096 358.8096 0 0 0-69.2224-8.192c-36.6592 0-73.3184 8.192-105.984 20.48a242.688 242.688 0 0 0-85.504 56.9344c-24.576 24.576-40.7552 53.0432-57.0368 85.6064-12.288 32.5632-20.48 69.2224-20.48 105.984 0 36.6592 4.096 73.3184 20.48 105.8816 12.1856 28.5696 32.5632 52.9408 52.9408 77.4144H139.9808C70.656 956.8256 9.5232 895.6928 9.5232 826.4704V145.92C9.5232 72.704 66.6624 15.5648 139.9808 15.5648h57.0368V84.992h395.264V15.5648h57.0368zM144.0768 581.9392h248.5248v-65.1264H144.0768v65.1264z m0-199.68H649.216v-65.1264H144.0768v65.1264z" p-id="8933"></path></svg>