<?xml version="1.0" standalone="no"?><!DOCTYPE svg PUBLIC "-//W3C//DTD SVG 1.1//EN" "http://www.w3.org/Graphics/SVG/1.1/DTD/svg11.dtd"><svg t="1574913641824" class="icon" viewBox="0 0 1024 1024" version="1.1" xmlns="http://www.w3.org/2000/svg" p-id="8149" xmlns:xlink="http://www.w3.org/1999/xlink" width="200" height="200"><defs><style type="text/css"></style></defs><path d="M803.137255 110.431373h-110.431373c-16.062745 0-30.117647 14.054902-30.117647 30.117647s14.054902 30.117647 30.117647 30.117647H803.137255c6.023529 0 10.039216 4.015686 10.039216 10.039215v70.27451h-602.352942V180.705882c0-6.023529 4.015686-10.039216 10.039216-10.039215h110.431373c16.062745 0 30.117647-14.054902 30.117647-30.117647s-14.054902-30.117647-30.117647-30.117647H220.862745C182.713725 110.431373 150.588235 142.556863 150.588235 180.705882v662.588236c0 38.14902 32.12549 70.27451 70.27451 70.274509h582.27451c38.14902 0 70.27451-32.12549 70.27451-70.274509V180.705882c0-38.14902-32.12549-70.27451-70.27451-70.274509z m0 742.90196H220.862745c-6.023529 0-10.039216-4.015686-10.039216-10.039215V311.215686h602.352942V843.294118c0 6.023529-4.015686 10.039216-10.039216 10.039215z" p-id="8150"></path><path d="M431.686275 170.666667h160.62745c16.062745 0 30.117647-14.054902 30.117648-30.117647s-14.054902-30.117647-30.117648-30.117647h-160.62745c-16.062745 0-30.117647 14.054902-30.117648 30.117647s14.054902 30.117647 30.117648 30.117647zM680.658824 421.647059L455.780392 662.588235l-92.360784-100.392157c-12.047059-12.047059-30.117647-14.054902-42.164706-2.007843-12.047059 12.047059-14.054902 30.117647-2.007843 42.164706l114.447059 124.486275c6.023529 6.023529 14.054902 10.039216 22.086274 10.039215 8.031373 0 16.062745-4.015686 22.086275-10.039215L724.831373 461.803922c12.047059-12.047059 10.039216-32.12549-2.007844-42.164706s-30.117647-10.039216-42.164705 2.007843z" p-id="8151"></path></svg>