<?xml version="1.0" standalone="no"?><!DOCTYPE svg PUBLIC "-//W3C//DTD SVG 1.1//EN" "http://www.w3.org/Graphics/SVG/1.1/DTD/svg11.dtd"><svg t="1574913345402" class="icon" viewBox="0 0 1024 1024" version="1.1" xmlns="http://www.w3.org/2000/svg" p-id="3533" xmlns:xlink="http://www.w3.org/1999/xlink" width="200" height="200"><defs><style type="text/css"></style></defs><path d="M824.73 153.18h-44.59V64h-89.98v89.08H332.14V64h-89.08v89.08h-44.59c-49.51 0-89.08 40.47-89.08 89.98l-0.9 627.06c0 49.51 39.57 89.88 89.88 89.88h627.16c49.51 0 89.98-40.47 89.98-89.88V243.06c-0.9-49.51-41.37-89.88-90.78-89.88z m26.11 746.06H169.55V377.53h681.29v521.71z m3.11-587.49c0 6.33-5.42 11.55-12.05 11.55H184.91c-6.63 0-12.05-5.22-12.05-11.55v-99.52c0-6.33 5.42-11.55 12.05-11.55H841.9c6.63 0 12.05 5.22 12.05 11.55v99.52z" fill="#666666" p-id="3534"></path><path d="M623.89 578.53c-10.92 10.36-22.29 21.38-33.75 33.39-12.66 13.27-25.9 28.02-39.99 44.24-23.86 27.48-55.98 66.5-87.01 110.47l-117.11-115L411.9 599l56.12 53.73c22.36-19.38 45.45-38.13 63.43-52.08 10.35-8.03 20.17-15.69 29.68-22.67 9.6-7.04 19.79-14.43 30.77-22.12 18.84-13.2 43.24-30.37 68.59-46.44l17.48 23.5c-13.69 8.37-35.46 27.94-54.08 45.61z" fill="#666666" p-id="3535"></path></svg>