<?xml version="1.0" standalone="no"?><!DOCTYPE svg PUBLIC "-//W3C//DTD SVG 1.1//EN" "http://www.w3.org/Graphics/SVG/1.1/DTD/svg11.dtd"><svg t="1574913194422" class="icon" viewBox="0 0 1024 1024" version="1.1" xmlns="http://www.w3.org/2000/svg" p-id="2037" width="200" height="200" xmlns:xlink="http://www.w3.org/1999/xlink"><defs><style type="text/css"></style></defs><path d="M592.23 542.31a30.72 30.72 0 0 0-30.72-30.72H304.742a30.72 30.72 0 1 0 0 61.44H561.51a30.72 30.72 0 0 0 30.72-30.72z m168.96 164.608v-61.44a30.72 30.72 0 0 0-61.44 0v92.16a30.72 30.72 0 0 0 30.72 30.72h92.16a30.72 30.72 0 1 0 0-61.44zM304.742 459.52H561.51a30.72 30.72 0 1 0 0-61.44H304.742a30.72 30.72 0 0 0 0 61.44z m0-113.51H699.75a30.72 30.72 0 0 0 0-61.44H304.742a30.72 30.72 0 1 0 0 61.44z" fill="#666666" p-id="2038"></path><path d="M862.515 572.826V253.133a92.16 92.16 0 0 0-92.16-92.16h-79.667A92.16 92.16 0 0 0 599.04 78.49H436.531a92.16 92.16 0 0 0-91.648 82.483h-79.667a92.16 92.16 0 0 0-92.16 92.16v579.84a92.16 92.16 0 0 0 92.16 92.16H666.88a205.21 205.21 0 0 0 195.635-352.307zM234.496 832.973v-579.84a30.72 30.72 0 0 1 30.72-30.72h109.875a30.72 30.72 0 0 0 30.72-30.72V170.65a30.72 30.72 0 0 1 30.72-30.72H599.04a30.72 30.72 0 0 1 30.72 30.72v21.043a30.72 30.72 0 0 0 30.72 30.72h109.875a30.72 30.72 0 0 1 30.72 30.72v283.955a205.21 205.21 0 0 0-226.201 326.605H265.216a30.72 30.72 0 0 1-30.72-30.72z m495.974 40.96A143.923 143.923 0 1 1 874.394 730.01 144.077 144.077 0 0 1 730.47 873.83z" fill="#666666" p-id="2039"></path></svg>