<?xml version="1.0" standalone="no"?><!DOCTYPE svg PUBLIC "-//W3C//DTD SVG 1.1//EN" "http://www.w3.org/Graphics/SVG/1.1/DTD/svg11.dtd"><svg t="1574913282773" class="icon" viewBox="0 0 1024 1024" version="1.1" xmlns="http://www.w3.org/2000/svg" p-id="2799" xmlns:xlink="http://www.w3.org/1999/xlink" width="200" height="200"><defs><style type="text/css"></style></defs><path d="M414.4 151h195c10.8 0 19.5-8.7 19.5-19.5s-8.8-19.5-19.5-19.5h-195c-10.8 0-19.5 8.7-19.5 19.5s8.7 19.5 19.5 19.5z m19.5 78H590c10.8 0 19.5-8.8 19.5-19.5 0-10.8-8.8-19.5-19.5-19.5H433.9c-10.8 0-19.5 8.7-19.5 19.5s8.7 19.5 19.5 19.5z m0 0M492.5 151h39v39h-39z" p-id="2800"></path><path d="M746.2 170.6h-19.5c-10.8 0-19.5 8.7-19.5 19.5s8.8 19.5 19.5 19.5h19.5c43.1 0 78 34.9 78 78v487.7c0 53.6-44 97.5-97.5 97.5H297.4c-53.6 0-97.5-43.9-97.5-97.5V287.6c0-43.1 34.9-78 78-78h19c11 0 20.2-9 20.1-19.9-0.2-10.7-8.9-19.2-19.5-19.2H278c-65.4 0-117 51.7-117 117v487.7c0 75.3 61.4 136.7 136.5 136.7h429.3c75.2 0 136.6-61.4 136.6-136.7V287.6c-0.2-65.4-51.8-117-117.2-117z m0 0" p-id="2801"></path><path d="M369.2 370.4l-28.1 23.5c50.1 37.2 96.8 79.9 137.8 122.7-62.9 63.1-112.1 125.1-138 150l53.6 44.6c19-39.1 60.4-98.5 115.7-160.7 55.4 62.5 96.9 122.2 116 161.6 0 0 52.2-55.2 56.9-46.7-20.2-22.5-69.1-88.1-135.1-155.2 37.8-38.7 80.2-76.9 125.5-110.6l-12.3-22.9c-51.4 25.4-100.2 63.2-144.1 103.4-44.3-41.8-94.5-81.7-147.9-109.7z" p-id="2802"></path></svg>