<?xml version="1.0" standalone="no"?><!DOCTYPE svg PUBLIC "-//W3C//DTD SVG 1.1//EN" "http://www.w3.org/Graphics/SVG/1.1/DTD/svg11.dtd"><svg t="1574303354890" class="icon" viewBox="0 0 1024 1024" version="1.1" xmlns="http://www.w3.org/2000/svg" p-id="4487" xmlns:xlink="http://www.w3.org/1999/xlink" width="128" height="128"><defs><style type="text/css"></style></defs><path d="M510.815 32c-263.111 0-478.815 215.704-478.815 478.815 0 265.481 215.704 481.185 478.815 481.185 265.481 0 481.185-215.704 481.185-481.185 0-263.111-215.704-478.815-481.185-478.815v0zM437.334 726.519c-9.482 0-16.593-2.37-23.704-9.482l-184.889-199.111c-14.222-14.222-14.222-35.556 0-47.407 11.852-11.852 33.186-11.852 45.037 0l163.555 177.778 312.889-329.482c14.222-11.852 35.556-11.852 47.408 0 11.852 14.222 11.852 33.186 0 47.407l-336.593 350.814c-7.111 7.111-16.593 9.482-23.704 9.482z" p-id="4488"></path></svg>