<?xml version="1.0" standalone="no"?><!DOCTYPE svg PUBLIC "-//W3C//DTD SVG 1.1//EN" "http://www.w3.org/Graphics/SVG/1.1/DTD/svg11.dtd"><svg t="1570784467784" class="icon" viewBox="0 0 1024 1024" version="1.1" xmlns="http://www.w3.org/2000/svg" p-id="2579" xmlns:xlink="http://www.w3.org/1999/xlink" width="128" height="128"><defs><style type="text/css"></style></defs><path d="M968.7 607.1L650.5 925.3l-35.4 35.4-35.4-35.4-148.4-148.4 35.4-35.4L615.1 890l318.2-318.2 35.4 35.3zM311.9 264c0-110.5 89.6-200.1 200.1-200.1S712.1 153.5 712.1 264 622.5 464.1 512 464.1 311.9 374.5 311.9 264z m50 0c0 40.1 15.6 77.8 44 106.2s66.1 44 106.2 44c40.1 0 77.8-15.6 106.2-44 28.4-28.4 44-66.1 44-106.2 0-40.1-15.6-77.8-44-106.2-28.4-28.4-66.1-44-106.2-44-40.1 0-77.8 15.6-106.2 44-28.4 28.4-44 66.1-44 106.2z m279.4 280.2c42.8 19 81.3 46.2 114.4 81 5 5.3 9.9 10.7 14.6 16.2l35.5-35.5c-75-86.7-183.3-141.2-303.8-141.2-226.4 0-410 192.5-410 430 0 3.4 0 6.9 0.1 10.3h50c-0.1-3.4-0.1-6.8-0.1-10.3 0-51.6 9.6-101.6 28.6-148.7 18.3-45.3 44.4-86 77.7-120.9 33.1-34.7 71.6-62 114.4-81 44.1-19.6 91-29.5 139.3-29.5s95.2 10 139.3 29.6z" fill="" p-id="2580"></path></svg>