<?xml version="1.0" standalone="no"?><!DOCTYPE svg PUBLIC "-//W3C//DTD SVG 1.1//EN" "http://www.w3.org/Graphics/SVG/1.1/DTD/svg11.dtd"><svg t="1574404370418" class="icon" viewBox="0 0 1024 1024" version="1.1" xmlns="http://www.w3.org/2000/svg" p-id="862" xmlns:xlink="http://www.w3.org/1999/xlink" width="200" height="200"><defs><style type="text/css"></style></defs><path d="M1003.873 418.283l-160-64a32.002 32.002 0 1 0-23.756 59.433l139.878 55.951v470.548l-191.996-95.99V576a32 32 0 1 0-64 0v269.435l-160 91.402V799.99a32 32 0 0 0-64 0v136.847l-160-91.402V575.999a32 32 0 1 0-64 0v268.227l-192 95.99V469.666l139.88-55.95a32.002 32.002 0 1 0-23.758-59.434l-159.995 64A32.016 32.016 0 0 0 0 448v544.01a32 32 0 0 0 46.313 28.61L287 900.28l208.876 119.357a0.074 0.074 0 0 0 0.059 0.04c0.033 0.021 0.066 0.021 0.096 0.042l0.092 0.061a30.552 30.552 0 0 0 3.423 1.413 34.154 34.154 0 0 0 4.266 1.741 32.008 32.008 0 0 0 16.384 0 34.154 34.154 0 0 0 4.266-1.74 30.552 30.552 0 0 0 3.422-1.414l0.092-0.061c0.03-0.02 0.063-0.02 0.096-0.041a0.074 0.074 0 0 0 0.06-0.041l208.877-119.358 240.685 120.34a32 32 0 0 0 46.305-28.61V448a32.018 32.018 0 0 0-20.126-29.716zM512 704a31.992 31.992 0 0 0 25.396-12.533C561.002 660.664 767.999 386.785 767.999 256a256 256 0 0 0-512 0c0 130.785 207.002 404.664 230.605 435.466A31.992 31.992 0 0 0 512 703.999z m0-640a192.205 192.205 0 0 1 192 192c0 81.47-121.65 265.667-192 362.435C441.657 521.666 320 337.469 320 256A192.205 192.205 0 0 1 512 64z m128 192a128 128 0 1 0-128 128 128.125 128.125 0 0 0 128-128z m-192 0a64 64 0 1 1 64 64 64.08 64.08 0 0 1-64-64z" p-id="863"></path></svg>