<?xml version="1.0" standalone="no"?><!DOCTYPE svg PUBLIC "-//W3C//DTD SVG 1.1//EN" "http://www.w3.org/Graphics/SVG/1.1/DTD/svg11.dtd"><svg t="1570765146386" class="icon" viewBox="0 0 1024 1024" version="1.1" xmlns="http://www.w3.org/2000/svg" p-id="2902" xmlns:xlink="http://www.w3.org/1999/xlink" width="128" height="128"><defs><style type="text/css"></style></defs><path d="M296.416 61.024h175.456v24.16H296.416v-24.16zM208.704 177.952h29.216a29.312 29.312 0 0 0 29.312-29.248V31.776a29.312 29.312 0 0 0-29.312-29.248h-29.216a29.216 29.216 0 0 0-29.184 29.248v116.928c0 16.16 13.088 29.248 29.184 29.248z m531.392-88.704v321.792l24.192-0.032V81.888c0-11.584-13.088-20.864-29.28-20.864h-116.928v24.544h92.768c16.16 0 29.248 9.312 29.248 20.832v-17.152z m-209.728 88.704h29.216a29.216 29.216 0 0 0 29.184-29.248V31.776a29.216 29.216 0 0 0-29.184-29.248h-29.216a29.28 29.28 0 0 0-29.312 29.248v116.928c0.032 16.16 13.12 29.248 29.312 29.248zM28.256 826.144V114.432c0-16.16 13.088-29.248 29.216-29.248h92.768v-24.16H33.248a29.248 29.248 0 0 0-29.216 29.248v760.192c0 16.128 13.088 29.216 29.216 29.216h350.848v-24.224H57.472a29.248 29.248 0 0 1-29.216-29.312z m136.608-414.272h438.56a14.624 14.624 0 0 0 14.624-14.592v-12.16a14.624 14.624 0 0 0-14.624-14.592H164.864a14.624 14.624 0 0 0-14.656 14.592v12.16a14.656 14.656 0 0 0 14.656 14.592z m-8.48 192.608c-3.424 0-6.144 6.464-6.144 14.592v12.096c0 8.064 2.72 14.56 6.144 14.56h184.48c3.424 0 6.144-6.496 6.144-14.56v-12.096c0-8.128-2.72-14.592-6.144-14.592H156.384z m351.52 175.584c0-0.384 0-0.192 0 0zM992.96 660.352h-49.568l-0.448 0.384c16.224 8.896 26.784 26.016 26.784 45.92l1.152 182.592H458.112v-182.592c0-19.52 10.944-36.32 26.944-45.408h-49.696a26.688 26.688 0 0 1-27.04-26.24v-26.368c0-14.528 12.096-26.368 27.04-26.368h27.04v52.736h22.656v-112.704c0-28.992 24.224-52.544 54.08-52.544h351.296c29.92 0 54.112 23.52 54.112 52.544l-0.96 111.712h22.24v-52.608h27.136c14.848 0 26.976 11.776 26.976 26.24v26.336a26.72 26.72 0 0 1-26.976 26.368z m-372.736 204.192h189.216v-26.272h-189.216v26.272z m0-52.64h189.216v-26.368h-189.216v26.368z m0-52.704h189.216v-26.304h-189.216v26.304z m-108.128 79.04c0 14.464 12.096 26.272 27.04 26.272h27.072a26.656 26.656 0 0 0 26.944-26.272 26.624 26.624 0 0 0-26.944-26.336h-27.072a26.656 26.656 0 0 0-27.04 26.336z m378.336-289.6a26.688 26.688 0 0 0-26.944-26.368h-297.28a26.72 26.72 0 0 0-27.072 26.368v131.648h351.296v-131.648z m0 263.264h-26.944a26.656 26.656 0 0 0-27.136 26.336c0 14.464 12.096 26.272 27.136 26.272h26.944a26.688 26.688 0 0 0 26.976-26.272 26.656 26.656 0 0 0-26.976-26.336z m81.056 103.584a26.624 26.624 0 0 1-26.944 26.272H485.056a26.592 26.592 0 0 1-26.944-26.272v-26.272h513.376v26.272zM593.152 995.2a26.592 26.592 0 0 1-26.944 26.272h-27.072a26.624 26.624 0 0 1-27.04-26.272v-52.672h81.056V995.2z m324.256 0a26.624 26.624 0 0 1-26.976 26.272h-26.944a26.656 26.656 0 0 1-27.136-26.272v-52.672h81.024V995.2h0.032z" p-id="2903"></path></svg>